<svg xmlns="http://www.w3.org/2000/svg" width="21.873" height="16.404" viewBox="0 0 21.873 16.404"><defs><style>.a{fill:#6c6c6c;}</style></defs><path class="a" d="M19.822,59.882H2.051A2.053,2.053,0,0,0,0,61.933v12.3a2.053,2.053,0,0,0,2.051,2.051H19.822a2.053,2.053,0,0,0,2.051-2.051v-12.3A2.053,2.053,0,0,0,19.822,59.882Zm0,1.367a.68.68,0,0,1,.262.053L10.936,69.23,1.789,61.3a.68.68,0,0,1,.262-.053Zm0,13.67H2.051a.684.684,0,0,1-.684-.684V62.746l9.121,7.905a.685.685,0,0,0,.9,0l9.121-7.905v11.49A.684.684,0,0,1,19.822,74.919Z" transform="translate(0 -59.882)"/></svg>