<svg xmlns="http://www.w3.org/2000/svg" width="18.908" height="18.999" viewBox="0 0 18.908 18.999"><defs><style>.a{fill:#23bf16;fill-rule:evenodd;}</style></defs><g transform="translate(-231.332 -28)"><path class="a" d="M16.4,2.761A9.416,9.416,0,0,0,1.586,14.12L.25,19l4.991-1.309a9.4,9.4,0,0,0,4.5,1.146h0A9.418,9.418,0,0,0,16.4,2.761ZM9.743,17.245h0a7.815,7.815,0,0,1-3.983-1.091l-.286-.17-2.962.777.79-2.887-.186-.3a7.825,7.825,0,1,1,6.629,3.667Zm4.292-5.86c-.235-.118-1.392-.687-1.607-.765s-.372-.118-.529.118-.608.765-.745.922-.274.177-.51.059a6.425,6.425,0,0,1-1.892-1.168A7.1,7.1,0,0,1,7.444,8.922c-.137-.236,0-.351.1-.48a6.654,6.654,0,0,0,.588-.8.433.433,0,0,0-.02-.412c-.059-.118-.529-1.276-.725-1.747s-.385-.4-.529-.4-.294-.008-.451-.008a.864.864,0,0,0-.627.294A2.638,2.638,0,0,0,4.96,7.323a4.576,4.576,0,0,0,.96,2.433,10.485,10.485,0,0,0,4.018,3.552,13.465,13.465,0,0,0,1.341.5,3.225,3.225,0,0,0,1.482.093,2.423,2.423,0,0,0,1.588-1.119,1.965,1.965,0,0,0,.137-1.119C14.427,11.562,14.271,11.5,14.035,11.385Zm0,0" transform="translate(231.082 28)"/></g></svg>