<svg xmlns="http://www.w3.org/2000/svg" xmlns:xlink="http://www.w3.org/1999/xlink" width="960" height="652" viewBox="0 0 960 652"><defs><style>.a{fill:url(#a);}.b{fill:url(#b);}.c{opacity:0.181;fill:url(#c);}.d{opacity:0.455;fill:url(#d);}.e{fill:#fff;}.f{fill:#b2d1e5;opacity:0.503;}.g{fill:#ffd89a;opacity:0.502;}.h{fill:#e2e2e2;}</style><linearGradient id="a" x1="0.118" y1="0.302" x2="1" y2="0.292" gradientUnits="objectBoundingBox"><stop offset="0" stop-color="#ccffea" stop-opacity="0"/><stop offset="1" stop-color="#aaffc7"/></linearGradient><linearGradient id="b" x1="-0.373" y1="0.332" y2="0.292" xlink:href="#a"/><linearGradient id="c" x1="-0.373" y1="0.332" x2="1" y2="0.292" gradientUnits="objectBoundingBox"><stop offset="0" stop-color="#aaa" stop-opacity="0.365"/><stop offset="1" stop-color="#c1c1c1" stop-opacity="0.765"/></linearGradient><linearGradient id="d" x1="-0.373" y1="0.332" x2="1" y2="0.292" gradientUnits="objectBoundingBox"><stop offset="0" stop-color="#aaa" stop-opacity="0.294"/><stop offset="1" stop-color="#a0a0a0" stop-opacity="0.224"/></linearGradient></defs><g transform="translate(-546 -86)"><rect class="a" width="168" height="112" transform="translate(783 155)"/><rect class="b" width="92" height="36" transform="translate(1002 702)"/><rect class="c" width="92" height="36" transform="translate(546 503)"/><rect class="d" width="92" height="44" transform="translate(599 86)"/><circle class="e" cx="145.5" cy="145.5" r="145.5" transform="translate(1205 296)"/><ellipse class="e" cx="146" cy="145.5" rx="146" ry="145.5" transform="translate(1067 413)"/><circle class="f" cx="145.5" cy="145.5" r="145.5" transform="translate(1215 296)"/><ellipse class="g" cx="146" cy="145.5" rx="146" ry="145.5" transform="translate(1077 413)"/><g transform="translate(141.605 31.352)"><g transform="translate(767.192 570.96)"><path class="h" d="M476.994,298.928a1.826,1.826,0,1,1-1.827-1.827A1.828,1.828,0,0,1,476.994,298.928Z" transform="translate(-473.341 -297.101)"/><path class="h" d="M492.136,298.928a1.827,1.827,0,1,1-1.827-1.827A1.828,1.828,0,0,1,492.136,298.928Z" transform="translate(-475.729 -297.101)"/><path class="h" d="M507.277,298.928a1.827,1.827,0,1,1-1.827-1.827A1.828,1.828,0,0,1,507.277,298.928Z" transform="translate(-478.117 -297.101)"/><path class="h" d="M522.418,298.928a1.827,1.827,0,1,1-1.827-1.827A1.828,1.828,0,0,1,522.418,298.928Z" transform="translate(-480.505 -297.101)"/><path class="h" d="M537.559,298.928a1.827,1.827,0,1,1-1.827-1.827A1.828,1.828,0,0,1,537.559,298.928Z" transform="translate(-482.894 -297.101)"/><path class="h" d="M552.7,298.928a1.826,1.826,0,1,1-1.827-1.827A1.827,1.827,0,0,1,552.7,298.928Z" transform="translate(-485.282 -297.101)"/><path class="h" d="M567.841,298.928a1.826,1.826,0,1,1-1.827-1.827A1.827,1.827,0,0,1,567.841,298.928Z" transform="translate(-487.67 -297.101)"/><path class="h" d="M582.983,298.928a1.827,1.827,0,1,1-1.827-1.827A1.828,1.828,0,0,1,582.983,298.928Z" transform="translate(-490.058 -297.101)"/><g transform="translate(0 10.694)"><path class="h" d="M476.994,311.625a1.826,1.826,0,1,1-1.827-1.827A1.827,1.827,0,0,1,476.994,311.625Z" transform="translate(-473.341 -309.798)"/><path class="h" d="M492.136,311.625a1.827,1.827,0,1,1-1.827-1.827A1.827,1.827,0,0,1,492.136,311.625Z" transform="translate(-475.729 -309.798)"/><path class="h" d="M507.277,311.625a1.827,1.827,0,1,1-1.827-1.827A1.827,1.827,0,0,1,507.277,311.625Z" transform="translate(-478.117 -309.798)"/><path class="h" d="M522.418,311.625a1.827,1.827,0,1,1-1.827-1.827A1.827,1.827,0,0,1,522.418,311.625Z" transform="translate(-480.506 -309.798)"/><path class="h" d="M537.559,311.625a1.827,1.827,0,1,1-1.827-1.827A1.827,1.827,0,0,1,537.559,311.625Z" transform="translate(-482.894 -309.798)"/><path class="h" d="M552.7,311.625a1.826,1.826,0,1,1-1.827-1.827A1.827,1.827,0,0,1,552.7,311.625Z" transform="translate(-485.282 -309.798)"/><path class="h" d="M567.841,311.625a1.826,1.826,0,1,1-1.827-1.827A1.826,1.826,0,0,1,567.841,311.625Z" transform="translate(-487.671 -309.798)"/><path class="h" d="M582.983,311.625a1.827,1.827,0,1,1-1.827-1.827A1.827,1.827,0,0,1,582.983,311.625Z" transform="translate(-490.059 -309.798)"/></g><g transform="translate(0 21.388)"><circle class="h" cx="1.827" cy="1.827" r="1.827" transform="translate(0 0)"/><path class="h" d="M492.136,324.321a1.827,1.827,0,1,1-1.827-1.827A1.827,1.827,0,0,1,492.136,324.321Z" transform="translate(-475.729 -322.494)"/><path class="h" d="M507.277,324.321a1.827,1.827,0,1,1-1.827-1.827A1.827,1.827,0,0,1,507.277,324.321Z" transform="translate(-478.117 -322.494)"/><circle class="h" cx="1.827" cy="1.827" r="1.827" transform="translate(38.259 0)"/><path class="h" d="M537.559,324.321a1.827,1.827,0,1,1-1.827-1.827A1.827,1.827,0,0,1,537.559,324.321Z" transform="translate(-482.894 -322.494)"/><circle class="h" cx="1.827" cy="1.827" r="1.827" transform="translate(63.765 0)"/><circle class="h" cx="1.827" cy="1.827" r="1.827" transform="translate(76.518 0)"/><path class="h" d="M582.983,324.321a1.827,1.827,0,1,1-1.827-1.827A1.827,1.827,0,0,1,582.983,324.321Z" transform="translate(-490.058 -322.494)"/></g><g transform="translate(0 32.082)"><path class="h" d="M476.994,337.018a1.826,1.826,0,1,1-1.827-1.827A1.827,1.827,0,0,1,476.994,337.018Z" transform="translate(-473.341 -335.191)"/><path class="h" d="M492.136,337.018a1.827,1.827,0,1,1-1.827-1.827A1.827,1.827,0,0,1,492.136,337.018Z" transform="translate(-475.729 -335.191)"/><path class="h" d="M507.277,337.018a1.827,1.827,0,1,1-1.827-1.827A1.827,1.827,0,0,1,507.277,337.018Z" transform="translate(-478.117 -335.191)"/><path class="h" d="M522.418,337.018a1.827,1.827,0,1,1-1.827-1.827A1.827,1.827,0,0,1,522.418,337.018Z" transform="translate(-480.506 -335.191)"/><path class="h" d="M537.559,337.018a1.827,1.827,0,1,1-1.827-1.827A1.827,1.827,0,0,1,537.559,337.018Z" transform="translate(-482.894 -335.191)"/><path class="h" d="M552.7,337.018a1.826,1.826,0,1,1-1.827-1.827A1.827,1.827,0,0,1,552.7,337.018Z" transform="translate(-485.282 -335.191)"/><path class="h" d="M567.841,337.018a1.826,1.826,0,1,1-1.827-1.827A1.826,1.826,0,0,1,567.841,337.018Z" transform="translate(-487.671 -335.191)"/><path class="h" d="M582.983,337.018a1.827,1.827,0,1,1-1.827-1.827A1.827,1.827,0,0,1,582.983,337.018Z" transform="translate(-490.059 -335.191)"/></g><g transform="translate(0 42.775)"><circle class="h" cx="1.827" cy="1.827" r="1.827" transform="translate(0 0)"/><path class="h" d="M492.136,349.714a1.827,1.827,0,1,1-1.827-1.827A1.827,1.827,0,0,1,492.136,349.714Z" transform="translate(-475.729 -347.887)"/><path class="h" d="M507.277,349.714a1.827,1.827,0,1,1-1.827-1.827A1.827,1.827,0,0,1,507.277,349.714Z" transform="translate(-478.117 -347.887)"/><circle class="h" cx="1.827" cy="1.827" r="1.827" transform="translate(38.259 0)"/><path class="h" d="M537.559,349.714a1.827,1.827,0,1,1-1.827-1.827A1.827,1.827,0,0,1,537.559,349.714Z" transform="translate(-482.894 -347.887)"/><circle class="h" cx="1.827" cy="1.827" r="1.827" transform="translate(63.765 0)"/><circle class="h" cx="1.827" cy="1.827" r="1.827" transform="translate(76.518 0)"/><path class="h" d="M582.983,349.714a1.827,1.827,0,1,1-1.827-1.827A1.827,1.827,0,0,1,582.983,349.714Z" transform="translate(-490.058 -347.887)"/></g><g transform="translate(0 53.47)"><circle class="h" cx="1.827" cy="1.827" r="1.827"/><path class="h" d="M492.136,362.411a1.827,1.827,0,1,1-1.827-1.827A1.827,1.827,0,0,1,492.136,362.411Z" transform="translate(-475.729 -360.584)"/><path class="h" d="M507.277,362.411a1.827,1.827,0,1,1-1.827-1.827A1.827,1.827,0,0,1,507.277,362.411Z" transform="translate(-478.117 -360.584)"/><circle class="h" cx="1.827" cy="1.827" r="1.827" transform="translate(38.259)"/><path class="h" d="M537.559,362.411a1.827,1.827,0,1,1-1.827-1.827A1.827,1.827,0,0,1,537.559,362.411Z" transform="translate(-482.894 -360.584)"/><circle class="h" cx="1.827" cy="1.827" r="1.827" transform="translate(63.765)"/><circle class="h" cx="1.827" cy="1.827" r="1.827" transform="translate(76.518)"/><path class="h" d="M582.983,362.411a1.827,1.827,0,1,1-1.827-1.827A1.827,1.827,0,0,1,582.983,362.411Z" transform="translate(-490.058 -360.584)"/></g><g transform="translate(0 64.163)"><path class="h" d="M476.994,375.107a1.826,1.826,0,1,1-1.827-1.827A1.827,1.827,0,0,1,476.994,375.107Z" transform="translate(-473.341 -373.28)"/><path class="h" d="M492.136,375.107a1.827,1.827,0,1,1-1.827-1.827A1.827,1.827,0,0,1,492.136,375.107Z" transform="translate(-475.729 -373.28)"/><path class="h" d="M507.277,375.107a1.827,1.827,0,1,1-1.827-1.827A1.827,1.827,0,0,1,507.277,375.107Z" transform="translate(-478.117 -373.28)"/><path class="h" d="M522.418,375.107a1.827,1.827,0,1,1-1.827-1.827A1.827,1.827,0,0,1,522.418,375.107Z" transform="translate(-480.506 -373.28)"/><path class="h" d="M537.559,375.107a1.827,1.827,0,1,1-1.827-1.827A1.827,1.827,0,0,1,537.559,375.107Z" transform="translate(-482.894 -373.28)"/><path class="h" d="M552.7,375.107a1.826,1.826,0,1,1-1.827-1.827A1.827,1.827,0,0,1,552.7,375.107Z" transform="translate(-485.282 -373.28)"/><path class="h" d="M567.841,375.107a1.826,1.826,0,1,1-1.827-1.827A1.826,1.826,0,0,1,567.841,375.107Z" transform="translate(-487.671 -373.28)"/><path class="h" d="M582.983,375.107a1.827,1.827,0,1,1-1.827-1.827A1.827,1.827,0,0,1,582.983,375.107Z" transform="translate(-490.059 -373.28)"/></g><g transform="translate(0 74.857)"><circle class="h" cx="1.827" cy="1.827" r="1.827"/><path class="h" d="M492.136,387.8a1.827,1.827,0,1,1-1.827-1.827A1.827,1.827,0,0,1,492.136,387.8Z" transform="translate(-475.729 -385.977)"/><path class="h" d="M507.277,387.8a1.827,1.827,0,1,1-1.827-1.827A1.827,1.827,0,0,1,507.277,387.8Z" transform="translate(-478.117 -385.977)"/><circle class="h" cx="1.827" cy="1.827" r="1.827" transform="translate(38.259)"/><path class="h" d="M537.559,387.8a1.827,1.827,0,1,1-1.827-1.827A1.827,1.827,0,0,1,537.559,387.8Z" transform="translate(-482.894 -385.977)"/><circle class="h" cx="1.827" cy="1.827" r="1.827" transform="translate(63.765)"/><circle class="h" cx="1.827" cy="1.827" r="1.827" transform="translate(76.518)"/><path class="h" d="M582.983,387.8a1.827,1.827,0,1,1-1.827-1.827A1.827,1.827,0,0,1,582.983,387.8Z" transform="translate(-490.058 -385.977)"/></g></g><g transform="translate(767.192 539)"><path class="h" d="M476.994,298.928a1.826,1.826,0,1,1-1.827-1.827A1.828,1.828,0,0,1,476.994,298.928Z" transform="translate(-473.341 -297.101)"/><path class="h" d="M492.136,298.928a1.827,1.827,0,1,1-1.827-1.827A1.828,1.828,0,0,1,492.136,298.928Z" transform="translate(-475.729 -297.101)"/><path class="h" d="M507.277,298.928a1.827,1.827,0,1,1-1.827-1.827A1.828,1.828,0,0,1,507.277,298.928Z" transform="translate(-478.117 -297.101)"/><path class="h" d="M522.418,298.928a1.827,1.827,0,1,1-1.827-1.827A1.828,1.828,0,0,1,522.418,298.928Z" transform="translate(-480.505 -297.101)"/><path class="h" d="M537.559,298.928a1.827,1.827,0,1,1-1.827-1.827A1.828,1.828,0,0,1,537.559,298.928Z" transform="translate(-482.894 -297.101)"/><path class="h" d="M552.7,298.928a1.826,1.826,0,1,1-1.827-1.827A1.827,1.827,0,0,1,552.7,298.928Z" transform="translate(-485.282 -297.101)"/><path class="h" d="M567.841,298.928a1.826,1.826,0,1,1-1.827-1.827A1.827,1.827,0,0,1,567.841,298.928Z" transform="translate(-487.67 -297.101)"/><path class="h" d="M582.983,298.928a1.827,1.827,0,1,1-1.827-1.827A1.828,1.828,0,0,1,582.983,298.928Z" transform="translate(-490.058 -297.101)"/><g transform="translate(0 10.694)"><path class="h" d="M476.994,311.625a1.826,1.826,0,1,1-1.827-1.827A1.827,1.827,0,0,1,476.994,311.625Z" transform="translate(-473.341 -309.798)"/><path class="h" d="M492.136,311.625a1.827,1.827,0,1,1-1.827-1.827A1.827,1.827,0,0,1,492.136,311.625Z" transform="translate(-475.729 -309.798)"/><path class="h" d="M507.277,311.625a1.827,1.827,0,1,1-1.827-1.827A1.827,1.827,0,0,1,507.277,311.625Z" transform="translate(-478.117 -309.798)"/><path class="h" d="M522.418,311.625a1.827,1.827,0,1,1-1.827-1.827A1.827,1.827,0,0,1,522.418,311.625Z" transform="translate(-480.506 -309.798)"/><path class="h" d="M537.559,311.625a1.827,1.827,0,1,1-1.827-1.827A1.827,1.827,0,0,1,537.559,311.625Z" transform="translate(-482.894 -309.798)"/><path class="h" d="M552.7,311.625a1.826,1.826,0,1,1-1.827-1.827A1.827,1.827,0,0,1,552.7,311.625Z" transform="translate(-485.282 -309.798)"/><path class="h" d="M567.841,311.625a1.826,1.826,0,1,1-1.827-1.827A1.826,1.826,0,0,1,567.841,311.625Z" transform="translate(-487.671 -309.798)"/><path class="h" d="M582.983,311.625a1.827,1.827,0,1,1-1.827-1.827A1.827,1.827,0,0,1,582.983,311.625Z" transform="translate(-490.059 -309.798)"/></g><g transform="translate(0 21.388)"><circle class="h" cx="1.827" cy="1.827" r="1.827" transform="translate(0 0)"/><path class="h" d="M492.136,324.321a1.827,1.827,0,1,1-1.827-1.827A1.827,1.827,0,0,1,492.136,324.321Z" transform="translate(-475.729 -322.494)"/><path class="h" d="M507.277,324.321a1.827,1.827,0,1,1-1.827-1.827A1.827,1.827,0,0,1,507.277,324.321Z" transform="translate(-478.117 -322.494)"/><circle class="h" cx="1.827" cy="1.827" r="1.827" transform="translate(38.259 0)"/><path class="h" d="M537.559,324.321a1.827,1.827,0,1,1-1.827-1.827A1.827,1.827,0,0,1,537.559,324.321Z" transform="translate(-482.894 -322.494)"/><circle class="h" cx="1.827" cy="1.827" r="1.827" transform="translate(63.765 0)"/><circle class="h" cx="1.827" cy="1.827" r="1.827" transform="translate(76.518 0)"/><path class="h" d="M582.983,324.321a1.827,1.827,0,1,1-1.827-1.827A1.827,1.827,0,0,1,582.983,324.321Z" transform="translate(-490.058 -322.494)"/></g><g transform="translate(0 32.082)"><path class="h" d="M476.994,337.018a1.826,1.826,0,1,1-1.827-1.827A1.827,1.827,0,0,1,476.994,337.018Z" transform="translate(-473.341 -335.191)"/><path class="h" d="M492.136,337.018a1.827,1.827,0,1,1-1.827-1.827A1.827,1.827,0,0,1,492.136,337.018Z" transform="translate(-475.729 -335.191)"/><path class="h" d="M507.277,337.018a1.827,1.827,0,1,1-1.827-1.827A1.827,1.827,0,0,1,507.277,337.018Z" transform="translate(-478.117 -335.191)"/><path class="h" d="M522.418,337.018a1.827,1.827,0,1,1-1.827-1.827A1.827,1.827,0,0,1,522.418,337.018Z" transform="translate(-480.506 -335.191)"/><path class="h" d="M537.559,337.018a1.827,1.827,0,1,1-1.827-1.827A1.827,1.827,0,0,1,537.559,337.018Z" transform="translate(-482.894 -335.191)"/><path class="h" d="M552.7,337.018a1.826,1.826,0,1,1-1.827-1.827A1.827,1.827,0,0,1,552.7,337.018Z" transform="translate(-485.282 -335.191)"/><path class="h" d="M567.841,337.018a1.826,1.826,0,1,1-1.827-1.827A1.826,1.826,0,0,1,567.841,337.018Z" transform="translate(-487.671 -335.191)"/><path class="h" d="M582.983,337.018a1.827,1.827,0,1,1-1.827-1.827A1.827,1.827,0,0,1,582.983,337.018Z" transform="translate(-490.059 -335.191)"/></g><g transform="translate(0 42.775)"><circle class="h" cx="1.827" cy="1.827" r="1.827" transform="translate(0 0)"/><path class="h" d="M492.136,349.714a1.827,1.827,0,1,1-1.827-1.827A1.827,1.827,0,0,1,492.136,349.714Z" transform="translate(-475.729 -347.887)"/><path class="h" d="M507.277,349.714a1.827,1.827,0,1,1-1.827-1.827A1.827,1.827,0,0,1,507.277,349.714Z" transform="translate(-478.117 -347.887)"/><circle class="h" cx="1.827" cy="1.827" r="1.827" transform="translate(38.259 0)"/><path class="h" d="M537.559,349.714a1.827,1.827,0,1,1-1.827-1.827A1.827,1.827,0,0,1,537.559,349.714Z" transform="translate(-482.894 -347.887)"/><circle class="h" cx="1.827" cy="1.827" r="1.827" transform="translate(63.765 0)"/><circle class="h" cx="1.827" cy="1.827" r="1.827" transform="translate(76.518 0)"/><path class="h" d="M582.983,349.714a1.827,1.827,0,1,1-1.827-1.827A1.827,1.827,0,0,1,582.983,349.714Z" transform="translate(-490.058 -347.887)"/></g><g transform="translate(0 53.47)"><circle class="h" cx="1.827" cy="1.827" r="1.827"/><path class="h" d="M492.136,362.411a1.827,1.827,0,1,1-1.827-1.827A1.827,1.827,0,0,1,492.136,362.411Z" transform="translate(-475.729 -360.584)"/><path class="h" d="M507.277,362.411a1.827,1.827,0,1,1-1.827-1.827A1.827,1.827,0,0,1,507.277,362.411Z" transform="translate(-478.117 -360.584)"/><circle class="h" cx="1.827" cy="1.827" r="1.827" transform="translate(38.259)"/><path class="h" d="M537.559,362.411a1.827,1.827,0,1,1-1.827-1.827A1.827,1.827,0,0,1,537.559,362.411Z" transform="translate(-482.894 -360.584)"/><circle class="h" cx="1.827" cy="1.827" r="1.827" transform="translate(63.765)"/><circle class="h" cx="1.827" cy="1.827" r="1.827" transform="translate(76.518)"/><path class="h" d="M582.983,362.411a1.827,1.827,0,1,1-1.827-1.827A1.827,1.827,0,0,1,582.983,362.411Z" transform="translate(-490.058 -360.584)"/></g><g transform="translate(0 64.163)"><path class="h" d="M476.994,375.107a1.826,1.826,0,1,1-1.827-1.827A1.827,1.827,0,0,1,476.994,375.107Z" transform="translate(-473.341 -373.28)"/><path class="h" d="M492.136,375.107a1.827,1.827,0,1,1-1.827-1.827A1.827,1.827,0,0,1,492.136,375.107Z" transform="translate(-475.729 -373.28)"/><path class="h" d="M507.277,375.107a1.827,1.827,0,1,1-1.827-1.827A1.827,1.827,0,0,1,507.277,375.107Z" transform="translate(-478.117 -373.28)"/><path class="h" d="M522.418,375.107a1.827,1.827,0,1,1-1.827-1.827A1.827,1.827,0,0,1,522.418,375.107Z" transform="translate(-480.506 -373.28)"/><path class="h" d="M537.559,375.107a1.827,1.827,0,1,1-1.827-1.827A1.827,1.827,0,0,1,537.559,375.107Z" transform="translate(-482.894 -373.28)"/><path class="h" d="M552.7,375.107a1.826,1.826,0,1,1-1.827-1.827A1.827,1.827,0,0,1,552.7,375.107Z" transform="translate(-485.282 -373.28)"/><path class="h" d="M567.841,375.107a1.826,1.826,0,1,1-1.827-1.827A1.826,1.826,0,0,1,567.841,375.107Z" transform="translate(-487.671 -373.28)"/><path class="h" d="M582.983,375.107a1.827,1.827,0,1,1-1.827-1.827A1.827,1.827,0,0,1,582.983,375.107Z" transform="translate(-490.059 -373.28)"/></g><g transform="translate(0 74.857)"><circle class="h" cx="1.827" cy="1.827" r="1.827"/><path class="h" d="M492.136,387.8a1.827,1.827,0,1,1-1.827-1.827A1.827,1.827,0,0,1,492.136,387.8Z" transform="translate(-475.729 -385.977)"/><path class="h" d="M507.277,387.8a1.827,1.827,0,1,1-1.827-1.827A1.827,1.827,0,0,1,507.277,387.8Z" transform="translate(-478.117 -385.977)"/><circle class="h" cx="1.827" cy="1.827" r="1.827" transform="translate(38.259)"/><path class="h" d="M537.559,387.8a1.827,1.827,0,1,1-1.827-1.827A1.827,1.827,0,0,1,537.559,387.8Z" transform="translate(-482.894 -385.977)"/><circle class="h" cx="1.827" cy="1.827" r="1.827" transform="translate(63.765)"/><circle class="h" cx="1.827" cy="1.827" r="1.827" transform="translate(76.518)"/><path class="h" d="M582.983,387.8a1.827,1.827,0,1,1-1.827-1.827A1.827,1.827,0,0,1,582.983,387.8Z" transform="translate(-490.058 -385.977)"/></g></g><g transform="translate(678 570.96)"><path class="h" d="M476.994,298.928a1.826,1.826,0,1,1-1.827-1.827A1.828,1.828,0,0,1,476.994,298.928Z" transform="translate(-473.341 -297.101)"/><path class="h" d="M492.136,298.928a1.827,1.827,0,1,1-1.827-1.827A1.828,1.828,0,0,1,492.136,298.928Z" transform="translate(-475.729 -297.101)"/><path class="h" d="M507.277,298.928a1.827,1.827,0,1,1-1.827-1.827A1.828,1.828,0,0,1,507.277,298.928Z" transform="translate(-478.117 -297.101)"/><path class="h" d="M522.418,298.928a1.827,1.827,0,1,1-1.827-1.827A1.828,1.828,0,0,1,522.418,298.928Z" transform="translate(-480.505 -297.101)"/><path class="h" d="M537.559,298.928a1.827,1.827,0,1,1-1.827-1.827A1.828,1.828,0,0,1,537.559,298.928Z" transform="translate(-482.894 -297.101)"/><path class="h" d="M552.7,298.928a1.826,1.826,0,1,1-1.827-1.827A1.827,1.827,0,0,1,552.7,298.928Z" transform="translate(-485.282 -297.101)"/><path class="h" d="M567.841,298.928a1.826,1.826,0,1,1-1.827-1.827A1.827,1.827,0,0,1,567.841,298.928Z" transform="translate(-487.67 -297.101)"/><path class="h" d="M582.983,298.928a1.827,1.827,0,1,1-1.827-1.827A1.828,1.828,0,0,1,582.983,298.928Z" transform="translate(-490.058 -297.101)"/><g transform="translate(0 10.694)"><path class="h" d="M476.994,311.625a1.826,1.826,0,1,1-1.827-1.827A1.827,1.827,0,0,1,476.994,311.625Z" transform="translate(-473.341 -309.798)"/><path class="h" d="M492.136,311.625a1.827,1.827,0,1,1-1.827-1.827A1.827,1.827,0,0,1,492.136,311.625Z" transform="translate(-475.729 -309.798)"/><path class="h" d="M507.277,311.625a1.827,1.827,0,1,1-1.827-1.827A1.827,1.827,0,0,1,507.277,311.625Z" transform="translate(-478.117 -309.798)"/><path class="h" d="M522.418,311.625a1.827,1.827,0,1,1-1.827-1.827A1.827,1.827,0,0,1,522.418,311.625Z" transform="translate(-480.506 -309.798)"/><path class="h" d="M537.559,311.625a1.827,1.827,0,1,1-1.827-1.827A1.827,1.827,0,0,1,537.559,311.625Z" transform="translate(-482.894 -309.798)"/><path class="h" d="M552.7,311.625a1.826,1.826,0,1,1-1.827-1.827A1.827,1.827,0,0,1,552.7,311.625Z" transform="translate(-485.282 -309.798)"/><path class="h" d="M567.841,311.625a1.826,1.826,0,1,1-1.827-1.827A1.826,1.826,0,0,1,567.841,311.625Z" transform="translate(-487.671 -309.798)"/><path class="h" d="M582.983,311.625a1.827,1.827,0,1,1-1.827-1.827A1.827,1.827,0,0,1,582.983,311.625Z" transform="translate(-490.059 -309.798)"/></g><g transform="translate(0 21.388)"><circle class="h" cx="1.827" cy="1.827" r="1.827" transform="translate(0 0)"/><path class="h" d="M492.136,324.321a1.827,1.827,0,1,1-1.827-1.827A1.827,1.827,0,0,1,492.136,324.321Z" transform="translate(-475.729 -322.494)"/><path class="h" d="M507.277,324.321a1.827,1.827,0,1,1-1.827-1.827A1.827,1.827,0,0,1,507.277,324.321Z" transform="translate(-478.117 -322.494)"/><circle class="h" cx="1.827" cy="1.827" r="1.827" transform="translate(38.259 0)"/><path class="h" d="M537.559,324.321a1.827,1.827,0,1,1-1.827-1.827A1.827,1.827,0,0,1,537.559,324.321Z" transform="translate(-482.894 -322.494)"/><circle class="h" cx="1.827" cy="1.827" r="1.827" transform="translate(63.765 0)"/><circle class="h" cx="1.827" cy="1.827" r="1.827" transform="translate(76.518 0)"/><path class="h" d="M582.983,324.321a1.827,1.827,0,1,1-1.827-1.827A1.827,1.827,0,0,1,582.983,324.321Z" transform="translate(-490.058 -322.494)"/></g><g transform="translate(0 32.082)"><path class="h" d="M476.994,337.018a1.826,1.826,0,1,1-1.827-1.827A1.827,1.827,0,0,1,476.994,337.018Z" transform="translate(-473.341 -335.191)"/><path class="h" d="M492.136,337.018a1.827,1.827,0,1,1-1.827-1.827A1.827,1.827,0,0,1,492.136,337.018Z" transform="translate(-475.729 -335.191)"/><path class="h" d="M507.277,337.018a1.827,1.827,0,1,1-1.827-1.827A1.827,1.827,0,0,1,507.277,337.018Z" transform="translate(-478.117 -335.191)"/><path class="h" d="M522.418,337.018a1.827,1.827,0,1,1-1.827-1.827A1.827,1.827,0,0,1,522.418,337.018Z" transform="translate(-480.506 -335.191)"/><path class="h" d="M537.559,337.018a1.827,1.827,0,1,1-1.827-1.827A1.827,1.827,0,0,1,537.559,337.018Z" transform="translate(-482.894 -335.191)"/><path class="h" d="M552.7,337.018a1.826,1.826,0,1,1-1.827-1.827A1.827,1.827,0,0,1,552.7,337.018Z" transform="translate(-485.282 -335.191)"/><path class="h" d="M567.841,337.018a1.826,1.826,0,1,1-1.827-1.827A1.826,1.826,0,0,1,567.841,337.018Z" transform="translate(-487.671 -335.191)"/><path class="h" d="M582.983,337.018a1.827,1.827,0,1,1-1.827-1.827A1.827,1.827,0,0,1,582.983,337.018Z" transform="translate(-490.059 -335.191)"/></g><g transform="translate(0 42.775)"><circle class="h" cx="1.827" cy="1.827" r="1.827" transform="translate(0 0)"/><path class="h" d="M492.136,349.714a1.827,1.827,0,1,1-1.827-1.827A1.827,1.827,0,0,1,492.136,349.714Z" transform="translate(-475.729 -347.887)"/><path class="h" d="M507.277,349.714a1.827,1.827,0,1,1-1.827-1.827A1.827,1.827,0,0,1,507.277,349.714Z" transform="translate(-478.117 -347.887)"/><circle class="h" cx="1.827" cy="1.827" r="1.827" transform="translate(38.259 0)"/><path class="h" d="M537.559,349.714a1.827,1.827,0,1,1-1.827-1.827A1.827,1.827,0,0,1,537.559,349.714Z" transform="translate(-482.894 -347.887)"/><circle class="h" cx="1.827" cy="1.827" r="1.827" transform="translate(63.765 0)"/><circle class="h" cx="1.827" cy="1.827" r="1.827" transform="translate(76.518 0)"/><path class="h" d="M582.983,349.714a1.827,1.827,0,1,1-1.827-1.827A1.827,1.827,0,0,1,582.983,349.714Z" transform="translate(-490.058 -347.887)"/></g><g transform="translate(0 53.47)"><circle class="h" cx="1.827" cy="1.827" r="1.827"/><path class="h" d="M492.136,362.411a1.827,1.827,0,1,1-1.827-1.827A1.827,1.827,0,0,1,492.136,362.411Z" transform="translate(-475.729 -360.584)"/><path class="h" d="M507.277,362.411a1.827,1.827,0,1,1-1.827-1.827A1.827,1.827,0,0,1,507.277,362.411Z" transform="translate(-478.117 -360.584)"/><circle class="h" cx="1.827" cy="1.827" r="1.827" transform="translate(38.259)"/><path class="h" d="M537.559,362.411a1.827,1.827,0,1,1-1.827-1.827A1.827,1.827,0,0,1,537.559,362.411Z" transform="translate(-482.894 -360.584)"/><circle class="h" cx="1.827" cy="1.827" r="1.827" transform="translate(63.765)"/><circle class="h" cx="1.827" cy="1.827" r="1.827" transform="translate(76.518)"/><path class="h" d="M582.983,362.411a1.827,1.827,0,1,1-1.827-1.827A1.827,1.827,0,0,1,582.983,362.411Z" transform="translate(-490.058 -360.584)"/></g><g transform="translate(0 64.163)"><path class="h" d="M476.994,375.107a1.826,1.826,0,1,1-1.827-1.827A1.827,1.827,0,0,1,476.994,375.107Z" transform="translate(-473.341 -373.28)"/><path class="h" d="M492.136,375.107a1.827,1.827,0,1,1-1.827-1.827A1.827,1.827,0,0,1,492.136,375.107Z" transform="translate(-475.729 -373.28)"/><path class="h" d="M507.277,375.107a1.827,1.827,0,1,1-1.827-1.827A1.827,1.827,0,0,1,507.277,375.107Z" transform="translate(-478.117 -373.28)"/><path class="h" d="M522.418,375.107a1.827,1.827,0,1,1-1.827-1.827A1.827,1.827,0,0,1,522.418,375.107Z" transform="translate(-480.506 -373.28)"/><path class="h" d="M537.559,375.107a1.827,1.827,0,1,1-1.827-1.827A1.827,1.827,0,0,1,537.559,375.107Z" transform="translate(-482.894 -373.28)"/><path class="h" d="M552.7,375.107a1.826,1.826,0,1,1-1.827-1.827A1.827,1.827,0,0,1,552.7,375.107Z" transform="translate(-485.282 -373.28)"/><path class="h" d="M567.841,375.107a1.826,1.826,0,1,1-1.827-1.827A1.826,1.826,0,0,1,567.841,375.107Z" transform="translate(-487.671 -373.28)"/><path class="h" d="M582.983,375.107a1.827,1.827,0,1,1-1.827-1.827A1.827,1.827,0,0,1,582.983,375.107Z" transform="translate(-490.059 -373.28)"/></g><g transform="translate(0 74.857)"><circle class="h" cx="1.827" cy="1.827" r="1.827"/><path class="h" d="M492.136,387.8a1.827,1.827,0,1,1-1.827-1.827A1.827,1.827,0,0,1,492.136,387.8Z" transform="translate(-475.729 -385.977)"/><path class="h" d="M507.277,387.8a1.827,1.827,0,1,1-1.827-1.827A1.827,1.827,0,0,1,507.277,387.8Z" transform="translate(-478.117 -385.977)"/><circle class="h" cx="1.827" cy="1.827" r="1.827" transform="translate(38.259)"/><path class="h" d="M537.559,387.8a1.827,1.827,0,1,1-1.827-1.827A1.827,1.827,0,0,1,537.559,387.8Z" transform="translate(-482.894 -385.977)"/><circle class="h" cx="1.827" cy="1.827" r="1.827" transform="translate(63.765)"/><circle class="h" cx="1.827" cy="1.827" r="1.827" transform="translate(76.518)"/><path class="h" d="M582.983,387.8a1.827,1.827,0,1,1-1.827-1.827A1.827,1.827,0,0,1,582.983,387.8Z" transform="translate(-490.058 -385.977)"/></g></g><g transform="translate(678 539)"><path class="h" d="M476.994,298.928a1.826,1.826,0,1,1-1.827-1.827A1.828,1.828,0,0,1,476.994,298.928Z" transform="translate(-473.341 -297.101)"/><path class="h" d="M492.136,298.928a1.827,1.827,0,1,1-1.827-1.827A1.828,1.828,0,0,1,492.136,298.928Z" transform="translate(-475.729 -297.101)"/><path class="h" d="M507.277,298.928a1.827,1.827,0,1,1-1.827-1.827A1.828,1.828,0,0,1,507.277,298.928Z" transform="translate(-478.117 -297.101)"/><path class="h" d="M522.418,298.928a1.827,1.827,0,1,1-1.827-1.827A1.828,1.828,0,0,1,522.418,298.928Z" transform="translate(-480.505 -297.101)"/><path class="h" d="M537.559,298.928a1.827,1.827,0,1,1-1.827-1.827A1.828,1.828,0,0,1,537.559,298.928Z" transform="translate(-482.894 -297.101)"/><path class="h" d="M552.7,298.928a1.826,1.826,0,1,1-1.827-1.827A1.827,1.827,0,0,1,552.7,298.928Z" transform="translate(-485.282 -297.101)"/><path class="h" d="M567.841,298.928a1.826,1.826,0,1,1-1.827-1.827A1.827,1.827,0,0,1,567.841,298.928Z" transform="translate(-487.67 -297.101)"/><path class="h" d="M582.983,298.928a1.827,1.827,0,1,1-1.827-1.827A1.828,1.828,0,0,1,582.983,298.928Z" transform="translate(-490.058 -297.101)"/><g transform="translate(0 10.694)"><path class="h" d="M476.994,311.625a1.826,1.826,0,1,1-1.827-1.827A1.827,1.827,0,0,1,476.994,311.625Z" transform="translate(-473.341 -309.798)"/><path class="h" d="M492.136,311.625a1.827,1.827,0,1,1-1.827-1.827A1.827,1.827,0,0,1,492.136,311.625Z" transform="translate(-475.729 -309.798)"/><path class="h" d="M507.277,311.625a1.827,1.827,0,1,1-1.827-1.827A1.827,1.827,0,0,1,507.277,311.625Z" transform="translate(-478.117 -309.798)"/><path class="h" d="M522.418,311.625a1.827,1.827,0,1,1-1.827-1.827A1.827,1.827,0,0,1,522.418,311.625Z" transform="translate(-480.506 -309.798)"/><path class="h" d="M537.559,311.625a1.827,1.827,0,1,1-1.827-1.827A1.827,1.827,0,0,1,537.559,311.625Z" transform="translate(-482.894 -309.798)"/><path class="h" d="M552.7,311.625a1.826,1.826,0,1,1-1.827-1.827A1.827,1.827,0,0,1,552.7,311.625Z" transform="translate(-485.282 -309.798)"/><path class="h" d="M567.841,311.625a1.826,1.826,0,1,1-1.827-1.827A1.826,1.826,0,0,1,567.841,311.625Z" transform="translate(-487.671 -309.798)"/><path class="h" d="M582.983,311.625a1.827,1.827,0,1,1-1.827-1.827A1.827,1.827,0,0,1,582.983,311.625Z" transform="translate(-490.059 -309.798)"/></g><g transform="translate(0 21.388)"><circle class="h" cx="1.827" cy="1.827" r="1.827" transform="translate(0 0)"/><path class="h" d="M492.136,324.321a1.827,1.827,0,1,1-1.827-1.827A1.827,1.827,0,0,1,492.136,324.321Z" transform="translate(-475.729 -322.494)"/><path class="h" d="M507.277,324.321a1.827,1.827,0,1,1-1.827-1.827A1.827,1.827,0,0,1,507.277,324.321Z" transform="translate(-478.117 -322.494)"/><circle class="h" cx="1.827" cy="1.827" r="1.827" transform="translate(38.259 0)"/><path class="h" d="M537.559,324.321a1.827,1.827,0,1,1-1.827-1.827A1.827,1.827,0,0,1,537.559,324.321Z" transform="translate(-482.894 -322.494)"/><circle class="h" cx="1.827" cy="1.827" r="1.827" transform="translate(63.765 0)"/><circle class="h" cx="1.827" cy="1.827" r="1.827" transform="translate(76.518 0)"/><path class="h" d="M582.983,324.321a1.827,1.827,0,1,1-1.827-1.827A1.827,1.827,0,0,1,582.983,324.321Z" transform="translate(-490.058 -322.494)"/></g><g transform="translate(0 32.082)"><path class="h" d="M476.994,337.018a1.826,1.826,0,1,1-1.827-1.827A1.827,1.827,0,0,1,476.994,337.018Z" transform="translate(-473.341 -335.191)"/><path class="h" d="M492.136,337.018a1.827,1.827,0,1,1-1.827-1.827A1.827,1.827,0,0,1,492.136,337.018Z" transform="translate(-475.729 -335.191)"/><path class="h" d="M507.277,337.018a1.827,1.827,0,1,1-1.827-1.827A1.827,1.827,0,0,1,507.277,337.018Z" transform="translate(-478.117 -335.191)"/><path class="h" d="M522.418,337.018a1.827,1.827,0,1,1-1.827-1.827A1.827,1.827,0,0,1,522.418,337.018Z" transform="translate(-480.506 -335.191)"/><path class="h" d="M537.559,337.018a1.827,1.827,0,1,1-1.827-1.827A1.827,1.827,0,0,1,537.559,337.018Z" transform="translate(-482.894 -335.191)"/><path class="h" d="M552.7,337.018a1.826,1.826,0,1,1-1.827-1.827A1.827,1.827,0,0,1,552.7,337.018Z" transform="translate(-485.282 -335.191)"/><path class="h" d="M567.841,337.018a1.826,1.826,0,1,1-1.827-1.827A1.826,1.826,0,0,1,567.841,337.018Z" transform="translate(-487.671 -335.191)"/><path class="h" d="M582.983,337.018a1.827,1.827,0,1,1-1.827-1.827A1.827,1.827,0,0,1,582.983,337.018Z" transform="translate(-490.059 -335.191)"/></g><g transform="translate(0 42.775)"><circle class="h" cx="1.827" cy="1.827" r="1.827" transform="translate(0 0)"/><path class="h" d="M492.136,349.714a1.827,1.827,0,1,1-1.827-1.827A1.827,1.827,0,0,1,492.136,349.714Z" transform="translate(-475.729 -347.887)"/><path class="h" d="M507.277,349.714a1.827,1.827,0,1,1-1.827-1.827A1.827,1.827,0,0,1,507.277,349.714Z" transform="translate(-478.117 -347.887)"/><circle class="h" cx="1.827" cy="1.827" r="1.827" transform="translate(38.259 0)"/><path class="h" d="M537.559,349.714a1.827,1.827,0,1,1-1.827-1.827A1.827,1.827,0,0,1,537.559,349.714Z" transform="translate(-482.894 -347.887)"/><circle class="h" cx="1.827" cy="1.827" r="1.827" transform="translate(63.765 0)"/><circle class="h" cx="1.827" cy="1.827" r="1.827" transform="translate(76.518 0)"/><path class="h" d="M582.983,349.714a1.827,1.827,0,1,1-1.827-1.827A1.827,1.827,0,0,1,582.983,349.714Z" transform="translate(-490.058 -347.887)"/></g><g transform="translate(0 53.47)"><circle class="h" cx="1.827" cy="1.827" r="1.827"/><path class="h" d="M492.136,362.411a1.827,1.827,0,1,1-1.827-1.827A1.827,1.827,0,0,1,492.136,362.411Z" transform="translate(-475.729 -360.584)"/><path class="h" d="M507.277,362.411a1.827,1.827,0,1,1-1.827-1.827A1.827,1.827,0,0,1,507.277,362.411Z" transform="translate(-478.117 -360.584)"/><circle class="h" cx="1.827" cy="1.827" r="1.827" transform="translate(38.259)"/><path class="h" d="M537.559,362.411a1.827,1.827,0,1,1-1.827-1.827A1.827,1.827,0,0,1,537.559,362.411Z" transform="translate(-482.894 -360.584)"/><circle class="h" cx="1.827" cy="1.827" r="1.827" transform="translate(63.765)"/><circle class="h" cx="1.827" cy="1.827" r="1.827" transform="translate(76.518)"/><path class="h" d="M582.983,362.411a1.827,1.827,0,1,1-1.827-1.827A1.827,1.827,0,0,1,582.983,362.411Z" transform="translate(-490.058 -360.584)"/></g><g transform="translate(0 64.163)"><path class="h" d="M476.994,375.107a1.826,1.826,0,1,1-1.827-1.827A1.827,1.827,0,0,1,476.994,375.107Z" transform="translate(-473.341 -373.28)"/><path class="h" d="M492.136,375.107a1.827,1.827,0,1,1-1.827-1.827A1.827,1.827,0,0,1,492.136,375.107Z" transform="translate(-475.729 -373.28)"/><path class="h" d="M507.277,375.107a1.827,1.827,0,1,1-1.827-1.827A1.827,1.827,0,0,1,507.277,375.107Z" transform="translate(-478.117 -373.28)"/><path class="h" d="M522.418,375.107a1.827,1.827,0,1,1-1.827-1.827A1.827,1.827,0,0,1,522.418,375.107Z" transform="translate(-480.506 -373.28)"/><path class="h" d="M537.559,375.107a1.827,1.827,0,1,1-1.827-1.827A1.827,1.827,0,0,1,537.559,375.107Z" transform="translate(-482.894 -373.28)"/><path class="h" d="M552.7,375.107a1.826,1.826,0,1,1-1.827-1.827A1.827,1.827,0,0,1,552.7,375.107Z" transform="translate(-485.282 -373.28)"/><path class="h" d="M567.841,375.107a1.826,1.826,0,1,1-1.827-1.827A1.826,1.826,0,0,1,567.841,375.107Z" transform="translate(-487.671 -373.28)"/><path class="h" d="M582.983,375.107a1.827,1.827,0,1,1-1.827-1.827A1.827,1.827,0,0,1,582.983,375.107Z" transform="translate(-490.059 -373.28)"/></g><g transform="translate(0 74.857)"><circle class="h" cx="1.827" cy="1.827" r="1.827"/><path class="h" d="M492.136,387.8a1.827,1.827,0,1,1-1.827-1.827A1.827,1.827,0,0,1,492.136,387.8Z" transform="translate(-475.729 -385.977)"/><path class="h" d="M507.277,387.8a1.827,1.827,0,1,1-1.827-1.827A1.827,1.827,0,0,1,507.277,387.8Z" transform="translate(-478.117 -385.977)"/><circle class="h" cx="1.827" cy="1.827" r="1.827" transform="translate(38.259)"/><path class="h" d="M537.559,387.8a1.827,1.827,0,1,1-1.827-1.827A1.827,1.827,0,0,1,537.559,387.8Z" transform="translate(-482.894 -385.977)"/><circle class="h" cx="1.827" cy="1.827" r="1.827" transform="translate(63.765)"/><circle class="h" cx="1.827" cy="1.827" r="1.827" transform="translate(76.518)"/><path class="h" d="M582.983,387.8a1.827,1.827,0,1,1-1.827-1.827A1.827,1.827,0,0,1,582.983,387.8Z" transform="translate(-490.058 -385.977)"/></g></g></g></g></svg>